<?xml version="1.0" encoding="UTF-8" standalone="no"?>
<svg width="200" height="200" viewBox="0 0 200 200" xmlns="http://www.w3.org/2000/svg">
  <rect width="200" height="200" fill="#f0f0f0"/>
  <g fill="#808080">
    <path d="M100,50 Q120,50 130,60 Q140,70 140,90 L140,110 Q140,130 130,140 Q120,150 100,150 Q80,150 70,140 Q60,130 60,110 L60,90 Q60,70 70,60 Q80,50 100,50 Z" opacity="0.8"/>
    <rect x="90" y="30" width="20" height="20" rx="5"/>
    <rect x="50" y="90" width="10" height="20" rx="3"/>
    <rect x="140" y="90" width="10" height="20" rx="3"/>
    <rect x="85" y="150" width="30" height="10" rx="3"/>
    <path d="M105,95 Q110,95 112,97 Q114,99 114,104 L114,106 Q114,111 112,113 Q110,115 105,115 Q100,115 98,113 Q96,111 96,106 L96,104 Q96,99 98,97 Q100,95 105,95 Z" fill="white"/>
  </g>
  <text x="100" y="180" font-family="Arial, sans-serif" font-size="14" text-anchor="middle" fill="#404040">PC Component</text>
</svg>